<svg t="1753694168797" class="icon" viewBox="0 0 1024 1024" version="1.1" xmlns="http://www.w3.org/2000/svg" p-id="5331" width="200" height="200"><path d="M496 813.28h32V960h-32zM496 64h32v192.48h-32zM875.52 496H960v32h-84.48zM64 496h192v32H64zM594.448 817.472l30.432-9.872 40.784 125.536-30.448 9.888zM358.368 90.912l30.432-9.888 59.28 182.464-30.432 9.888zM80.96 635.232l180.624-58.688 9.888 30.432-180.624 58.688zM692.96 788.192l25.872-18.816 69.504 95.664-25.888 18.8zM235.728 158.928l25.888-18.816 112.864 155.328-25.888 18.816zM140.16 762.448l148.464-107.872 18.8 25.888-148.464 107.872zM779.6 726.272l18.816-25.888 85.44 62.08-18.816 25.888zM140.24 261.632l18.8-25.888 155.584 113.056-18.8 25.888zM235.776 865.12l102.688-141.36 25.888 18.816-102.688 141.344zM839.824 635.312l9.888-30.432 93.28 30.304-9.904 30.432zM80.928 388.8l9.888-30.448 181.232 58.88-9.888 30.448zM358.336 933.168l49.824-153.568 30.432 9.872L388.8 943.04z" fill="#ffffff" p-id="5332"></path></svg>