<?xml version="1.0" encoding="utf-8"?>
<svg version="1.1" xmlns:xlink="http://www.w3.org/1999/xlink" width="10px" height="10px" viewBox="494 464  10 10" xmlns="http://www.w3.org/2000/svg">
  <path d="M 499 464  C 501.8 464  504 466.2  504 469  C 504 471.8  501.8 474  499 474  C 496.2 474  494 471.8  494 469  C 494 466.2  496.2 464  499 464  Z " fill-rule="nonzero" fill="#ffffff" stroke="none" />
  <path d="M 499 464.5  C 501.52 464.5  503.5 466.48  503.5 469  C 503.5 471.52  501.52 473.5  499 473.5  C 496.48 473.5  494.5 471.52  494.5 469  C 494.5 466.48  496.48 464.5  499 464.5  Z " stroke-width="1" stroke="#797979" fill="none" />
  <path d="M 499 471.5  C 497.6 471.5  496.5 470.4  496.5 469  C 496.5 467.6  497.6 466.5  499 466.5  C 500.4 466.5  501.5 467.6  501.5 469  C 501.5 470.4  500.4 471.5  499 471.5  " fill-rule="nonzero" fill="#797979" stroke="none" />
</svg>