<?xml version="1.0" encoding="utf-8"?>
<svg version="1.1" xmlns:xlink="http://www.w3.org/1999/xlink" width="10px" height="10px" viewBox="494 483  10 10" xmlns="http://www.w3.org/2000/svg">
  <path d="M 499 483  C 501.8 483  504 485.2  504 488  C 504 490.8  501.8 493  499 493  C 496.2 493  494 490.8  494 488  C 494 485.2  496.2 483  499 483  Z " fill-rule="nonzero" fill="#ffffff" stroke="none" />
  <path d="M 499 483.5  C 501.52 483.5  503.5 485.48  503.5 488  C 503.5 490.52  501.52 492.5  499 492.5  C 496.48 492.5  494.5 490.52  494.5 488  C 494.5 485.48  496.48 483.5  499 483.5  Z " stroke-width="1" stroke="#797979" fill="none" />
  <path d="M 499 490.5  C 497.6 490.5  496.5 489.4  496.5 488  C 496.5 486.6  497.6 485.5  499 485.5  C 500.4 485.5  501.5 486.6  501.5 488  C 501.5 489.4  500.4 490.5  499 490.5  " fill-rule="nonzero" fill="#797979" stroke="none" />
</svg>