<?xml version="1.0" encoding="utf-8"?>
<svg version="1.1" xmlns:xlink="http://www.w3.org/1999/xlink" width="10px" height="10px" viewBox="385 483  10 10" xmlns="http://www.w3.org/2000/svg">
  <path d="M 390 483  C 392.8 483  395 485.2  395 488  C 395 490.8  392.8 493  390 493  C 387.2 493  385 490.8  385 488  C 385 485.2  387.2 483  390 483  Z " fill-rule="nonzero" fill="#f0f0f0" stroke="none" />
  <path d="M 390 483.5  C 392.52 483.5  394.5 485.48  394.5 488  C 394.5 490.52  392.52 492.5  390 492.5  C 387.48 492.5  385.5 490.52  385.5 488  C 385.5 485.48  387.48 483.5  390 483.5  Z " stroke-width="1" stroke="#797979" fill="none" />
  <path d="M 390 490.5  C 388.6 490.5  387.5 489.4  387.5 488  C 387.5 486.6  388.6 485.5  390 485.5  C 391.4 485.5  392.5 486.6  392.5 488  C 392.5 489.4  391.4 490.5  390 490.5  " fill-rule="nonzero" fill="#797979" stroke="none" />
</svg>